<svg version="1.1" id="Layer_1" xmlns="http://www.w3.org/2000/svg" xmlns:xlink="http://www.w3.org/1999/xlink" x="0px" y="0px"
	 width="100%" viewBox="0 0 800 600" enable-background="new 0 0 800 600" xml:space="preserve">
<path fill="#000000" opacity="1.000000" stroke="none" 
	d="
M486.000000,601.000000 
	C324.000000,601.000000 162.500000,601.000000 1.000000,601.000000 
	C1.000000,401.000000 1.000000,201.000000 1.000000,1.000000 
	C267.666656,1.000000 534.333313,1.000000 801.000000,1.000000 
	C801.000000,201.000000 801.000000,401.000000 801.000000,601.000000 
	C696.166687,601.000000 591.333313,601.000000 486.000000,601.000000 
M554.601196,475.740112 
	C555.055298,475.190765 555.509460,474.641388 556.664185,473.969208 
	C558.569824,472.679260 560.431152,471.317383 562.388062,470.110626 
	C578.681763,460.063080 593.636047,448.492828 605.960999,433.633606 
	C619.191772,417.682343 629.630859,400.179718 637.150818,380.885590 
	C643.542236,364.487183 647.880249,347.630035 650.250244,330.146240 
	C653.009338,309.791565 653.473877,289.456146 649.048157,269.459595 
	C645.488037,253.373734 641.048584,237.318939 635.153748,221.958633 
	C629.073059,206.113907 620.908752,191.052261 613.341980,175.803864 
	C610.879456,170.841492 607.428711,166.369553 604.234131,161.105164 
	C603.791016,160.289581 603.347900,159.473984 602.904785,158.658401 
	C602.653931,158.803604 602.403015,158.948807 602.152161,159.094009 
	C602.742188,160.082977 603.332275,161.071945 603.990906,162.841629 
	C605.628845,171.904785 607.266846,180.967941 608.256226,189.772858 
	C602.142456,181.654648 596.315857,173.297363 589.820801,165.496582 
	C584.941650,159.636566 579.203979,154.491379 573.951172,148.192932 
	C574.615173,144.501648 575.661560,140.832550 575.877258,137.115250 
	C576.834717,120.615448 570.041687,106.962219 558.893494,95.574272 
	C545.616638,82.011955 529.140076,73.294907 511.356049,67.059746 
	C493.299194,60.728916 474.820831,56.098816 455.751892,54.031139 
	C443.686188,52.722832 431.651398,50.825523 419.551636,50.228268 
	C409.329437,49.723701 398.960876,50.057209 388.787933,51.192436 
	C374.350525,52.803558 359.860321,54.720341 345.704803,57.897316 
	C324.115601,62.742661 303.804474,71.195053 284.335052,81.868591 
	C264.977020,92.481071 247.432861,105.462494 231.326111,120.395638 
	C223.678818,127.485718 216.651794,135.273819 209.660919,143.031479 
	C205.764008,147.355804 202.517838,152.266541 198.349777,157.208984 
	C196.749893,159.335541 195.149994,161.462097 193.550110,163.588654 
	C193.988449,163.925446 194.426788,164.262238 194.865112,164.599030 
	C196.603928,162.741470 198.342728,160.883896 200.675110,158.729385 
	C204.685501,155.068573 208.504074,151.167404 212.738708,147.787537 
	C233.831665,130.952255 257.148865,118.307182 283.335266,111.368820 
	C289.109222,109.838951 295.118622,109.197517 300.725250,108.791603 
	C299.854126,109.191315 298.943970,109.523537 298.117798,110.001022 
	C288.404968,115.614555 278.704773,121.249878 268.345734,127.190109 
	C267.572876,127.791695 266.888275,128.615921 266.014282,128.962463 
	C239.886948,139.322311 217.319504,154.636337 198.607147,175.811142 
	C184.797455,191.438110 174.147415,208.836868 166.052002,227.951019 
	C156.010605,251.659851 150.853500,276.534058 149.187302,302.065979 
	C148.468307,313.083527 148.841919,324.340393 150.271118,335.285858 
	C151.908936,347.829041 154.640015,360.321136 158.011185,372.527496 
	C165.397888,399.273376 176.950089,424.311859 191.096939,448.147186 
	C194.234451,453.433502 197.772079,458.482330 201.125488,463.640503 
	C194.315720,443.715057 191.911560,423.648743 195.788940,403.270905 
	C197.634399,406.455963 199.184250,409.862610 201.376816,412.787445 
	C210.509796,424.970520 219.836227,437.008606 228.976608,449.994019 
	C228.547684,470.083344 236.733414,486.519196 250.263412,500.802704 
	C265.011353,516.372070 282.836487,527.210022 302.319305,535.746826 
	C330.884430,548.263184 360.968658,554.038757 391.851440,555.895508 
	C412.781036,557.153748 433.622955,555.059998 454.100403,550.732361 
	C485.258209,544.147339 513.949158,531.374023 540.376587,513.733582 
	C563.156128,498.528046 582.623169,479.592957 599.961182,458.454071 
	C602.477417,455.386230 604.630127,452.020233 606.950989,448.792175 
	C605.254395,448.722595 604.253662,449.234192 603.533264,450.007172 
	C591.892578,462.497162 578.216003,472.384369 563.542236,480.902588 
	C548.994019,489.347961 533.508484,495.534088 517.240234,498.241882 
	C526.415527,493.071655 535.684570,488.058136 544.718323,482.651520 
	C548.165283,480.588593 551.073059,477.624817 554.055115,475.059113 
	C554.055115,475.059113 554.050354,475.230865 554.601196,475.740112 
M189.549881,170.630981 
	C190.841934,169.029526 192.133987,167.428055 193.426041,165.826599 
	C193.069839,165.573669 192.713623,165.320755 192.357422,165.067825 
	C191.285736,166.740311 190.214050,168.412781 189.549881,170.630981 
M608.504822,445.126160 
	C608.507690,445.540619 608.510559,445.955048 608.513489,446.369537 
	C608.925903,446.173401 609.338379,445.977264 609.750793,445.781097 
	C609.474060,445.441925 609.197266,445.102783 608.504822,445.126160 
z"/>
<path fill="#7EB53E" opacity="1.000000" stroke="none" 
	d="
M195.167511,402.967224 
	C191.911560,423.648743 194.315720,443.715057 201.125488,463.640503 
	C197.772079,458.482330 194.234451,453.433502 191.096939,448.147186 
	C176.950089,424.311859 165.397888,399.273376 158.011185,372.527496 
	C154.640015,360.321136 151.908936,347.829041 150.271118,335.285858 
	C148.841919,324.340393 148.468307,313.083527 149.187302,302.065979 
	C150.853500,276.534058 156.010605,251.659851 166.052002,227.951019 
	C174.147415,208.836868 184.797455,191.438110 198.607147,175.811142 
	C217.319504,154.636337 239.886948,139.322311 266.014282,128.962463 
	C266.888275,128.615921 267.572876,127.791695 269.068176,127.073326 
	C279.942902,123.972054 289.961578,120.359932 300.281555,118.163406 
	C312.914948,115.474518 325.779144,113.816399 338.587921,112.031067 
	C343.785614,111.306595 349.101562,111.183472 354.361420,111.211670 
	C361.795929,111.251526 369.227295,111.719154 376.661865,111.941765 
	C384.827026,112.186241 392.998505,112.259201 401.159027,112.602814 
	C406.031219,112.807968 410.887604,113.389290 415.751129,113.801514 
	C415.846954,113.312370 415.942780,112.823227 416.038574,112.334091 
	C414.956451,111.894096 413.907501,111.197128 412.787262,111.052475 
	C394.418518,108.680626 376.092133,105.704185 357.646912,104.299133 
	C345.475159,103.371964 333.112701,104.444321 320.868469,105.172974 
	C314.216766,105.568817 307.633636,107.118004 301.019592,108.146973 
	C295.118622,109.197517 289.109222,109.838951 283.335266,111.368820 
	C257.148865,118.307182 233.831665,130.952255 212.738708,147.787537 
	C208.504074,151.167404 204.685501,155.068573 200.146210,158.674866 
	C199.404358,158.051239 199.191376,157.482117 198.978424,156.913010 
	C202.517838,152.266541 205.764008,147.355804 209.660919,143.031479 
	C216.651794,135.273819 223.678818,127.485718 231.326111,120.395638 
	C247.432861,105.462494 264.977020,92.481071 284.335052,81.868591 
	C303.804474,71.195053 324.115601,62.742661 345.704803,57.897316 
	C359.860321,54.720341 374.350525,52.803558 388.787933,51.192436 
	C398.960876,50.057209 409.329437,49.723701 419.551636,50.228268 
	C431.651398,50.825523 443.686188,52.722832 455.751892,54.031139 
	C474.820831,56.098816 493.299194,60.728916 511.356049,67.059746 
	C529.140076,73.294907 545.616638,82.011955 558.893494,95.574272 
	C570.041687,106.962219 576.834717,120.615448 575.877258,137.115250 
	C575.661560,140.832550 574.615173,144.501648 573.594116,148.809113 
	C570.476135,155.486771 568.420410,162.006119 564.833435,167.531403 
	C548.315308,192.975571 523.777100,208.804123 497.249847,221.770096 
	C485.274200,227.623520 472.668091,232.250397 460.156494,236.920685 
	C452.405029,239.814133 444.293732,241.743607 436.279327,243.698700 
	C435.000580,242.087250 433.940430,240.062027 432.549377,239.801178 
	C410.253387,235.620270 387.852905,233.079224 365.223358,237.076233 
	C343.196472,240.966812 325.485901,251.551239 313.212097,270.570862 
	C312.689270,270.632599 312.363068,270.893738 312.074890,271.072418 
	C312.112885,270.989929 312.283112,271.053284 311.859314,271.035889 
	C302.245178,274.235321 292.770020,276.826263 283.943878,280.843292 
	C274.930847,284.945374 266.555084,290.447632 257.574860,295.207458 
	C252.763153,291.377289 247.990829,287.968628 243.851227,283.914032 
	C235.673782,275.904541 237.828278,267.855835 249.064026,265.636932 
	C254.632858,264.537140 260.692566,264.893799 266.377899,265.685516 
	C272.816925,266.582214 279.085236,268.704620 285.506989,270.313934 
	C284.777985,261.233582 283.856384,252.321320 283.439941,243.385483 
	C283.256561,239.450516 281.457611,238.323578 277.975464,237.970154 
	C270.869751,237.248932 263.815216,235.891937 256.698669,235.437607 
	C242.144287,234.508438 227.624100,234.742203 214.493637,242.347809 
	C201.618134,249.805771 195.641373,261.095459 196.843567,276.048004 
	C197.727097,287.036865 204.397171,294.605072 212.015656,301.541229 
	C218.659241,307.589783 225.475845,313.448364 232.016937,319.649017 
	C226.217590,327.608154 220.617294,335.309143 214.607040,343.015015 
	C206.571075,340.950409 198.945084,338.880981 190.960510,336.714264 
	C191.616257,344.004547 192.455887,351.399414 192.904953,358.817902 
	C193.478394,368.291260 193.342514,368.299500 202.050949,371.220154 
	C199.742889,382.069153 197.455200,392.518188 195.167511,402.967224 
z"/>
<path fill="#0D6A34" opacity="1.000000" stroke="none" 
	d="
M516.966797,498.904053 
	C533.508484,495.534088 548.994019,489.347961 563.542236,480.902588 
	C578.216003,472.384369 591.892578,462.497162 603.533264,450.007172 
	C604.253662,449.234192 605.254395,448.722595 606.950989,448.792175 
	C604.630127,452.020233 602.477417,455.386230 599.961182,458.454071 
	C582.623169,479.592957 563.156128,498.528046 540.376587,513.733582 
	C513.949158,531.374023 485.258209,544.147339 454.100403,550.732361 
	C433.622955,555.059998 412.781036,557.153748 391.851440,555.895508 
	C360.968658,554.038757 330.884430,548.263184 302.319305,535.746826 
	C282.836487,527.210022 265.011353,516.372070 250.263412,500.802704 
	C236.733414,486.519196 228.547684,470.083344 229.398376,449.343750 
	C229.887543,447.034485 229.733673,445.331299 230.055420,443.723206 
	C234.980804,419.105072 247.216156,399.266083 268.150330,384.947174 
	C285.619781,372.998108 304.850800,365.224854 325.538940,360.034729 
	C343.418152,371.426361 363.383270,373.693085 383.351044,373.587280 
	C399.704620,373.500641 416.033325,370.543243 432.396027,369.123199 
	C436.679352,368.751434 438.060608,367.045471 438.030365,362.853973 
	C437.982635,356.244873 438.531281,349.631439 439.260864,343.006592 
	C441.584991,342.663147 443.473389,342.318665 445.366882,342.005280 
	C451.544037,340.982941 457.723114,339.971924 463.929352,339.409851 
	C463.302094,348.624390 462.724640,357.392426 461.954926,366.143555 
	C461.629944,369.838074 462.961182,371.144379 466.707947,371.064545 
	C476.185730,370.862549 485.673462,370.866638 495.151398,371.064758 
	C498.801514,371.141022 500.045929,369.985077 500.091675,366.248260 
	C500.244019,353.794739 500.754272,341.345642 501.463928,328.764648 
	C508.327637,325.746063 514.854736,322.857635 521.622986,320.186523 
	C530.908752,335.927399 540.035217,351.404419 548.922607,367.017517 
	C550.525696,369.833740 552.202881,371.114319 555.512451,371.066956 
	C567.502747,370.895416 579.496948,370.992676 591.489685,370.999939 
	C600.747009,371.005554 600.747070,371.013184 600.936584,361.565735 
	C600.939880,361.399200 600.935852,361.232513 600.940552,361.066040 
	C601.311890,347.933533 601.626770,334.799103 602.079468,321.669373 
	C602.308411,315.029297 602.730347,308.394135 603.162598,301.763092 
	C604.532166,280.748627 605.947693,259.737183 607.377625,238.241135 
	C604.436523,238.088928 601.662354,237.945358 598.965332,237.441223 
	C605.544556,222.071289 608.481079,206.314545 608.904846,190.031082 
	C607.266846,180.967941 605.628845,171.904785 604.082153,162.352615 
	C604.173462,161.863602 604.429932,161.673294 604.429932,161.673294 
	C607.428711,166.369553 610.879456,170.841492 613.341980,175.803864 
	C620.908752,191.052261 629.073059,206.113907 635.153748,221.958633 
	C641.048584,237.318939 645.488037,253.373734 649.048157,269.459595 
	C653.473877,289.456146 653.009338,309.791565 650.250244,330.146240 
	C647.880249,347.630035 643.542236,364.487183 637.150818,380.885590 
	C629.630859,400.179718 619.191772,417.682343 605.960999,433.633606 
	C593.636047,448.492828 578.681763,460.063080 562.388062,470.110626 
	C560.431152,471.317383 558.569824,472.679260 555.966431,473.992493 
	C554.862610,474.420807 554.456482,474.825836 554.050354,475.230835 
	C554.050354,475.230865 554.055115,475.059113 553.752930,475.036224 
	C501.236206,499.943390 446.176727,501.468567 389.921875,494.661194 
	C391.035034,496.034088 392.190704,496.713654 393.432770,496.963440 
	C397.726746,497.827087 402.028015,498.716064 406.367523,499.280304 
	C421.576965,501.257812 436.759796,503.746674 452.038147,504.785919 
	C463.208588,505.545715 474.562927,504.873322 485.743469,503.842926 
	C496.214020,502.877960 506.563843,500.602692 516.966797,498.904053 
z"/>
<path fill="#FEFEFE" opacity="1.000000" stroke="none" 
	d="
M608.580566,189.901978 
	C608.481079,206.314545 605.544556,222.071289 598.500122,237.468689 
	C588.511047,237.856750 579.064392,237.856750 569.487854,237.856750 
	C568.933960,254.085190 568.390625,270.003662 567.547852,286.055664 
	C562.218201,290.505493 557.188049,294.821838 552.017151,298.806335 
	C543.071960,282.455261 533.545410,266.778137 525.733459,250.288712 
	C521.027222,240.354721 515.348450,236.504227 504.272125,237.647049 
	C492.467377,238.865067 480.439575,237.921219 469.077332,237.921219 
	C467.338074,271.871918 465.619751,305.414246 463.901428,338.956543 
	C457.723114,339.971924 451.544037,340.982941 445.366882,342.005280 
	C443.473389,342.318665 441.584991,342.663147 439.115143,342.557190 
	C439.473022,325.889496 440.410004,309.657990 441.364807,293.117981 
	C422.743134,293.117981 404.112518,293.115356 385.481873,293.133057 
	C385.014862,293.133484 384.548035,293.358063 383.937622,293.514984 
	C383.513031,302.587860 383.090271,311.621643 382.646515,321.103943 
	C388.665680,321.103943 394.260590,321.103943 400.286377,321.103943 
	C399.974915,327.499786 399.855103,333.464783 399.261719,339.382263 
	C399.132812,340.667725 397.433655,342.656158 396.240234,342.830322 
	C390.008514,343.739868 383.660553,344.959930 377.438751,344.598114 
	C364.913940,343.869690 353.818756,339.690918 348.297821,327.130493 
	C339.444275,306.988373 348.079407,281.526764 367.284058,270.878357 
	C377.652435,265.129425 389.034424,263.260132 400.606293,264.586090 
	C412.867615,265.991119 424.994415,268.570099 436.343964,270.494568 
	C436.343964,262.353210 436.343964,253.229492 436.343964,244.105804 
	C444.293732,241.743607 452.405029,239.814133 460.156494,236.920685 
	C472.668091,232.250397 485.274200,227.623520 497.249847,221.770096 
	C523.777100,208.804123 548.315308,192.975571 564.833435,167.531403 
	C568.420410,162.006119 570.476135,155.486771 573.542847,149.226624 
	C579.203979,154.491379 584.941650,159.636566 589.820801,165.496582 
	C596.315857,173.297363 602.142456,181.654648 608.580566,189.901978 
z"/>
<path fill="#FEFEFE" opacity="1.000000" stroke="none" 
	d="
M325.211212,359.954498 
	C304.850800,365.224854 285.619781,372.998108 268.150330,384.947174 
	C247.216156,399.266083 234.980804,419.105072 230.055420,443.723206 
	C229.733673,445.331299 229.887543,447.034485 229.455933,448.896667 
	C219.836227,437.008606 210.509796,424.970520 201.376816,412.787445 
	C199.184250,409.862610 197.634399,406.455963 195.478226,403.119080 
	C197.455200,392.518188 199.742889,382.069153 202.481842,371.168701 
	C207.549744,371.328918 212.154037,372.063690 216.785385,372.529419 
	C231.431870,374.002228 245.926285,374.228516 260.185608,369.298187 
	C283.704407,361.166229 297.161621,331.489258 274.196747,309.936951 
	C268.880035,304.947296 263.338440,300.197235 257.900299,295.336914 
	C266.555084,290.447632 274.930847,284.945374 283.943878,280.843292 
	C292.770020,276.826263 302.245178,274.235321 312.047668,271.389893 
	C307.338654,281.481262 303.672913,291.747467 303.041656,302.881165 
	C301.774292,325.235382 307.785767,344.828918 325.211212,359.954498 
z"/>
<path fill="#FFFFFF" opacity="1.000000" stroke="none" 
	d="
M517.103516,498.572968 
	C506.563843,500.602692 496.214020,502.877960 485.743469,503.842926 
	C474.562927,504.873322 463.208588,505.545715 452.038147,504.785919 
	C436.759796,503.746674 421.576965,501.257812 406.367523,499.280304 
	C402.028015,498.716064 397.726746,497.827087 393.432770,496.963440 
	C392.190704,496.713654 391.035034,496.034088 389.921875,494.661194 
	C446.176727,501.468567 501.236206,499.943390 553.838623,475.042480 
	C551.073059,477.624817 548.165283,480.588593 544.718323,482.651520 
	C535.684570,488.058136 526.415527,493.071655 517.103516,498.572968 
z"/>
<path fill="#FFFFFF" opacity="1.000000" stroke="none" 
	d="
M300.872437,108.469284 
	C307.633636,107.118004 314.216766,105.568817 320.868469,105.172974 
	C333.112701,104.444321 345.475159,103.371964 357.646912,104.299133 
	C376.092133,105.704185 394.418518,108.680626 412.787262,111.052475 
	C413.907501,111.197128 414.956451,111.894096 416.038574,112.334091 
	C415.942780,112.823227 415.846954,113.312370 415.751129,113.801514 
	C410.887604,113.389290 406.031219,112.807968 401.159027,112.602814 
	C392.998505,112.259201 384.827026,112.186241 376.661865,111.941765 
	C369.227295,111.719154 361.795929,111.251526 354.361420,111.211670 
	C349.101562,111.183472 343.785614,111.306595 338.587921,112.031067 
	C325.779144,113.816399 312.914948,115.474518 300.281555,118.163406 
	C289.961578,120.359932 279.942902,123.972054 269.395935,126.917992 
	C278.704773,121.249878 288.404968,115.614555 298.117798,110.001022 
	C298.943970,109.523537 299.854126,109.191315 300.872437,108.469284 
z"/>
<path fill="#72AF2B" opacity="1.000000" stroke="none" 
	d="
M198.664093,157.061005 
	C199.191376,157.482117 199.404358,158.051239 199.849426,158.823334 
	C198.342728,160.883896 196.603928,162.741470 194.865112,164.599030 
	C194.426788,164.262238 193.988449,163.925446 193.550110,163.588654 
	C195.149994,161.462097 196.749893,159.335541 198.664093,157.061005 
z"/>
<path fill="#72AF2B" opacity="1.000000" stroke="none" 
	d="
M189.346130,170.358124 
	C190.214050,168.412781 191.285736,166.740311 192.357422,165.067825 
	C192.713623,165.320755 193.069839,165.573669 193.426041,165.826599 
	C192.133987,167.428055 190.841934,169.029526 189.346130,170.358124 
z"/>
<path fill="#0D6A34" opacity="1.000000" stroke="none" 
	d="
M604.047913,161.962265 
	C603.332275,161.071945 602.742188,160.082977 602.152161,159.094009 
	C602.403015,158.948807 602.653931,158.803604 602.904785,158.658401 
	C603.347900,159.473984 603.791016,160.289581 604.332031,161.389221 
	C604.429932,161.673294 604.173462,161.863602 604.047913,161.962265 
z"/>
<path fill="#0D6A34" opacity="1.000000" stroke="none" 
	d="
M608.712646,444.944885 
	C609.197266,445.102783 609.474060,445.441925 609.750793,445.781128 
	C609.338379,445.977264 608.925903,446.173401 608.513489,446.369507 
	C608.510559,445.955048 608.507690,445.540619 608.712646,444.944885 
z"/>
<path fill="#FFFFFF" opacity="1.000000" stroke="none" 
	d="
M554.325806,475.485474 
	C554.456482,474.825836 554.862610,474.420807 555.616150,474.053894 
	C555.509460,474.641388 555.055298,475.190765 554.325806,475.485474 
z"/>
<path fill="#343434" opacity="1.000000" stroke="none" 
	d="
M325.538940,360.034729 
	C307.785767,344.828918 301.774292,325.235382 303.041656,302.881165 
	C303.672913,291.747467 307.338654,281.481262 312.471497,271.407288 
	C312.283112,271.053284 312.112885,270.989929 312.475098,271.180389 
	C313.027802,271.170685 313.218292,270.970490 313.408783,270.770325 
	C325.485901,251.551239 343.196472,240.966812 365.223358,237.076233 
	C387.852905,233.079224 410.253387,235.620270 432.549377,239.801178 
	C433.940430,240.062027 435.000580,242.087250 436.279327,243.698700 
	C436.343964,253.229492 436.343964,262.353210 436.343964,270.494568 
	C424.994415,268.570099 412.867615,265.991119 400.606293,264.586090 
	C389.034424,263.260132 377.652435,265.129425 367.284058,270.878357 
	C348.079407,281.526764 339.444275,306.988373 348.297821,327.130493 
	C353.818756,339.690918 364.913940,343.869690 377.438751,344.598114 
	C383.660553,344.959930 390.008514,343.739868 396.240234,342.830322 
	C397.433655,342.656158 399.132812,340.667725 399.261719,339.382263 
	C399.855103,333.464783 399.974915,327.499786 400.286377,321.103943 
	C394.260590,321.103943 388.665680,321.103943 382.646515,321.103943 
	C383.090271,311.621643 383.513031,302.587860 383.937622,293.514984 
	C384.548035,293.358063 385.014862,293.133484 385.481873,293.133057 
	C404.112518,293.115356 422.743134,293.117981 441.364807,293.117981 
	C440.410004,309.657990 439.473022,325.889496 438.681732,342.570435 
	C438.531281,349.631439 437.982635,356.244873 438.030365,362.853973 
	C438.060608,367.045471 436.679352,368.751434 432.396027,369.123199 
	C416.033325,370.543243 399.704620,373.500641 383.351044,373.587280 
	C363.383270,373.693085 343.418152,371.426361 325.538940,360.034729 
z"/>
<path fill="#343434" opacity="1.000000" stroke="none" 
	d="
M257.574860,295.207458 
	C263.338440,300.197235 268.880035,304.947296 274.196747,309.936951 
	C297.161621,331.489258 283.704407,361.166229 260.185608,369.298187 
	C245.926285,374.228516 231.431870,374.002228 216.785385,372.529419 
	C212.154037,372.063690 207.549744,371.328918 202.502197,370.768738 
	C193.342514,368.299500 193.478394,368.291260 192.904953,358.817902 
	C192.455887,351.399414 191.616257,344.004547 190.960510,336.714264 
	C198.945084,338.880981 206.571075,340.950409 214.973938,343.204803 
	C222.973022,343.029358 230.400574,343.593018 237.359222,342.046661 
	C244.213013,340.523590 245.897552,333.912170 241.532776,328.319946 
	C238.913467,324.964050 235.353302,322.342499 232.215988,319.390900 
	C225.475845,313.448364 218.659241,307.589783 212.015656,301.541229 
	C204.397171,294.605072 197.727097,287.036865 196.843567,276.048004 
	C195.641373,261.095459 201.618134,249.805771 214.493637,242.347809 
	C227.624100,234.742203 242.144287,234.508438 256.698669,235.437607 
	C263.815216,235.891937 270.869751,237.248932 277.975464,237.970154 
	C281.457611,238.323578 283.256561,239.450516 283.439941,243.385483 
	C283.856384,252.321320 284.777985,261.233582 285.506989,270.313934 
	C279.085236,268.704620 272.816925,266.582214 266.377899,265.685516 
	C260.692566,264.893799 254.632858,264.537140 249.064026,265.636932 
	C237.828278,267.855835 235.673782,275.904541 243.851227,283.914032 
	C247.990829,287.968628 252.763153,291.377289 257.574860,295.207458 
z"/>
<path fill="#FCFCFC" opacity="1.000000" stroke="none" 
	d="
M232.016937,319.649017 
	C235.353302,322.342499 238.913467,324.964050 241.532776,328.319946 
	C245.897552,333.912170 244.213013,340.523590 237.359222,342.046661 
	C230.400574,343.593018 222.973022,343.029358 215.383911,343.199951 
	C220.617294,335.309143 226.217590,327.608154 232.016937,319.649017 
z"/>
<path fill="#FEFEFE" opacity="1.000000" stroke="none" 
	d="
M313.212097,270.570862 
	C313.218292,270.970490 313.027802,271.170685 312.437073,271.262878 
	C312.363068,270.893738 312.689270,270.632599 313.212097,270.570862 
z"/>
<path fill="#333434" opacity="1.000000" stroke="none" 
	d="
M463.929352,339.409851 
	C465.619751,305.414246 467.338074,271.871918 469.077332,237.921219 
	C480.439575,237.921219 492.467377,238.865067 504.272125,237.647049 
	C515.348450,236.504227 521.027222,240.354721 525.733459,250.288712 
	C533.545410,266.778137 543.071960,282.455261 552.145752,299.102264 
	C556.705627,307.440460 560.996216,315.150909 565.286804,322.861389 
	C565.582092,322.778473 565.877319,322.695557 566.172607,322.612671 
	C566.730835,310.382477 567.289124,298.152313 567.847351,285.922150 
	C568.390625,270.003662 568.933960,254.085190 569.487854,237.856750 
	C579.064392,237.856750 588.511047,237.856750 598.422974,237.829269 
	C601.662354,237.945358 604.436523,238.088928 607.377625,238.241135 
	C605.947693,259.737183 604.532166,280.748627 603.162598,301.763092 
	C602.730347,308.394135 602.308411,315.029297 602.079468,321.669373 
	C601.626770,334.799103 601.311890,347.933533 600.940552,361.066040 
	C600.935852,361.232513 600.939880,361.399200 600.936584,361.565735 
	C600.747070,371.013184 600.747009,371.005554 591.489685,370.999939 
	C579.496948,370.992676 567.502747,370.895416 555.512451,371.066956 
	C552.202881,371.114319 550.525696,369.833740 548.922607,367.017517 
	C540.035217,351.404419 530.908752,335.927399 521.595093,319.816589 
	C515.456787,308.632263 509.587555,298.035187 503.217133,286.533203 
	C502.481781,301.439331 501.804565,315.167084 501.127319,328.894836 
	C500.754272,341.345642 500.244019,353.794739 500.091675,366.248260 
	C500.045929,369.985077 498.801514,371.141022 495.151398,371.064758 
	C485.673462,370.866638 476.185730,370.862549 466.707947,371.064545 
	C462.961182,371.144379 461.629944,369.838074 461.954926,366.143555 
	C462.724640,357.392426 463.302094,348.624390 463.929352,339.409851 
z"/>
<path fill="#FBFBFB" opacity="1.000000" stroke="none" 
	d="
M501.463928,328.764648 
	C501.804565,315.167084 502.481781,301.439331 503.217133,286.533203 
	C509.587555,298.035187 515.456787,308.632263 521.353882,319.599274 
	C514.854736,322.857635 508.327637,325.746063 501.463928,328.764648 
z"/>
<path fill="#0F6934" opacity="1.000000" stroke="none" 
	d="
M567.547852,286.055664 
	C567.289124,298.152313 566.730835,310.382477 566.172607,322.612671 
	C565.877319,322.695557 565.582092,322.778473 565.286804,322.861389 
	C560.996216,315.150909 556.705627,307.440460 552.286499,299.434082 
	C557.188049,294.821838 562.218201,290.505493 567.547852,286.055664 
z"/>
</svg>