<?xml version="1.0" encoding="UTF-8"?>
<svg version="1.1" xmlns="http://www.w3.org/2000/svg" width="598" height="599">
<path d="M0 0 C0.83015625 0.68707031 1.6603125 1.37414062 2.515625 2.08203125 C13.05900762 11.0944137 22.30618553 23.82035314 24 38 C24.2902775 44.43193835 24.37660369 50.58437249 22.9375 56.875 C22.54632102 58.97526722 22.54632102 58.97526722 23 61 C24.96781668 63.37683169 27.10829583 65.14743464 29.53515625 67.05078125 C33.20579088 69.95354936 36.01721407 73.41569591 39 77 C39.79535156 77.93070312 40.59070313 78.86140625 41.41015625 79.8203125 C46.64566952 85.97529602 51.50979713 92.27956392 56 99 C55.13097418 89.98957442 53.99066677 81.77437954 50.70703125 73.2578125 C50 71 50 71 51 69 C76.54977749 107.67381914 99.73382012 155.91516026 100.23828125 203.21484375 C100.2480751 203.97934341 100.25786896 204.74384308 100.26795959 205.5315094 C100.44912416 223.36511448 100.01612616 240.52954556 96 258 C95.78569336 258.93650391 95.57138672 259.87300781 95.35058594 260.83789062 C87.22998448 295.14063507 71.7960258 325.95713915 48 352 C47.25234375 352.81984375 46.5046875 353.6396875 45.734375 354.484375 C36.29223105 364.34616979 25.11635729 372.08485127 13.73779297 379.51879883 C8.9116068 382.68129336 4.27572184 386.00412183 -0.3125 389.5 C-8.67085189 395.82046209 -17.80096583 400.80889538 -26.96972656 405.84594727 C-28.69029438 406.82395641 -30.35328533 407.90219022 -32 409 C-0.82900231 399.20666217 24.43312957 385.81407371 48.35546875 363.4609375 C51.49325421 360.54098943 54.72004664 357.7581426 58 355 C47.95289568 377.00058228 23.85303552 398.82957799 5 413 C4.33983887 413.50950195 3.67967773 414.01900391 2.99951172 414.54394531 C-48.80155847 454.49599022 -114.14685402 473.8262533 -179.4375 465.8046875 C-226.65737281 459.24056801 -276.59194003 443.72619785 -308 405.5703125 C-317.6327748 392.45425752 -323.51516041 378.00551815 -323.203125 361.59765625 C-324.29133219 358.05031419 -326.40798497 356.37952088 -329.07470703 353.87231445 C-332.16396049 350.86806834 -334.71562417 347.49212419 -337.3125 344.0625 C-337.86719971 343.33466309 -338.42189941 342.60682617 -338.9934082 341.85693359 C-344.4906719 334.53408312 -349.27776885 326.83526385 -354 319 C-354.66 318.01 -355.32 317.02 -356 316 C-359.03849112 319.03849112 -357.31128854 328.90552982 -357.32348633 333.00317383 C-357.21151046 345.11483365 -355.82317516 357.05086166 -351.30078125 368.36328125 C-350 372 -350 372 -351 375 C-388.94900006 321.09898664 -411.5303122 253.98405264 -400.54785156 188.00195312 C-393.82713122 151.17575999 -379.93085384 116.33835808 -355 88 C-354.17242187 87.03964844 -353.34484375 86.07929688 -352.4921875 85.08984375 C-334.81180948 64.91825862 -312.61319925 51.61856735 -288.75 39.9375 C-283.48065559 37.33500154 -278.57296682 34.29475225 -273.6015625 31.16796875 C-266.94706772 27.07858264 -259.93326457 23.58703029 -253 20 C-281.61552548 23.69410445 -309.21563097 36.57832804 -332 54 C-332.88042969 54.66773438 -333.76085937 55.33546875 -334.66796875 56.0234375 C-344.63385196 63.78700312 -353.87299754 72.31930589 -362 82 C-362 77.96441159 -360.04423361 75.82205087 -357.75 72.6875 C-357.30470947 72.07229492 -356.85941895 71.45708984 -356.40063477 70.82324219 C-351.30603556 63.894235 -345.69752746 57.43431131 -340 51 C-338.85917969 49.69095703 -338.85917969 49.69095703 -337.6953125 48.35546875 C-328.25237392 37.65001274 -318.23873794 27.81238372 -307 19 C-306.19175781 18.33613281 -305.38351562 17.67226562 -304.55078125 16.98828125 C-288.75757469 4.04344689 -271.40441033 -6.25768816 -253 -15 C-252.32163086 -15.3285498 -251.64326172 -15.65709961 -250.94433594 -15.99560547 C-181.01446044 -49.67833111 -61.9884448 -53.71555085 0 0 Z " fill="#7DB43D" transform="translate(452,87)"/>
<path d="M0 0 C4.10645725 3.58121271 6.47662159 7.88068005 9.125 12.5625 C9.84623047 13.8299707 9.84623047 13.8299707 10.58203125 15.12304688 C12.06436191 17.74338729 13.53309147 20.37100155 15 23 C15.43151367 23.76296387 15.86302734 24.52592773 16.30761719 25.31201172 C34.40658804 57.46355077 49.83961884 96.83514358 50.23828125 134.21484375 C50.2480751 134.97934341 50.25786896 135.74384308 50.26795959 136.5315094 C50.44912416 154.36511448 50.01612616 171.52954556 46 189 C45.67854004 190.40475586 45.67854004 190.40475586 45.35058594 191.83789062 C37.22998448 226.14063507 21.7960258 256.95713915 -2 283 C-2.74765625 283.81984375 -3.4953125 284.6396875 -4.265625 285.484375 C-13.70776895 295.34616979 -24.88364271 303.08485127 -36.26220703 310.51879883 C-41.0883932 313.68129336 -45.72427816 317.00412183 -50.3125 320.5 C-58.67085189 326.82046209 -67.80096583 331.80889538 -76.96972656 336.84594727 C-78.69029438 337.82395641 -80.35328533 338.90219022 -82 340 C-50.82900231 330.20666217 -25.56687043 316.81407371 -1.64453125 294.4609375 C1.49325421 291.54098943 4.72004664 288.7581426 8 286 C-2.04710432 308.00058228 -26.14696448 329.82957799 -45 344 C-45.66016113 344.50950195 -46.32032227 345.01900391 -47.00048828 345.54394531 C-98.80155847 385.49599022 -164.14685402 404.8262533 -229.4375 396.8046875 C-276.65737281 390.24056801 -326.59194003 374.72619785 -358 336.5703125 C-368.62976567 322.09674764 -375.02797494 305.65211894 -372.53125 287.61328125 C-368.19202156 262.89517637 -355.88098006 241.86612291 -335.36572266 227.14819336 C-317.93667001 215.24881439 -299.08919319 208.0427699 -279 202 C-278.76582327 199.88043468 -278.76582327 199.88043468 -280.50390625 198.4765625 C-281.18324219 197.86554688 -281.86257813 197.25453125 -282.5625 196.625 C-294.37304203 185.02349411 -298.98512878 169.14854894 -299.2421875 152.93457031 C-299.30122126 133.59363536 -294.15654345 116.58792665 -281 102 C-280.2575 101.12021484 -280.2575 101.12021484 -279.5 100.22265625 C-265.86480918 85.18985837 -244.6114852 78.20642798 -224.88378906 76.77368164 C-221.62796971 76.65950928 -218.38282321 76.62100527 -215.125 76.625 C-213.93841797 76.62443604 -212.75183594 76.62387207 -211.52929688 76.62329102 C-196.45935898 76.80330398 -180.63546537 78.34113366 -166 82 C-165.67 92.56 -165.34 103.12 -165 114 C-169.62 112.68 -174.24 111.36 -179 110 C-197.93536847 105.78864834 -219.82442515 103.70514938 -237.0546875 114.61328125 C-237.69664062 115.07089844 -238.33859375 115.52851563 -239 116 C-240.02480469 116.70189453 -240.02480469 116.70189453 -241.0703125 117.41796875 C-249.36397859 123.80377629 -254.19342439 133.81693546 -256 144 C-257.36064165 155.86291646 -255.9241695 166.53864591 -248.75 176.4375 C-239.87682887 184.70568219 -230.13399807 186.31698641 -218.375 186.13671875 C-213.22879744 185.9282499 -208.12655116 185.49412541 -203 185 C-202.67 177.74 -202.34 170.48 -202 163 C-207.61 163 -213.22 163 -219 163 C-219 153.76 -219 144.52 -219 135 C-199.53 135 -180.06 135 -160 135 C-160.66 143.91 -161.32 152.82 -162 162 C-162.36338123 169.66734393 -162.72626018 177.3297212 -163 185 C-162.34 184.67 -161.68 184.34 -161 184 C-159.33665893 183.71205148 -157.66571153 183.4673067 -155.9921875 183.24609375 C-155.00605469 183.11396484 -154.01992188 182.98183594 -153.00390625 182.84570312 C-151.97136719 182.71099609 -150.93882812 182.57628906 -149.875 182.4375 C-148.31458984 182.22963867 -148.31458984 182.22963867 -146.72265625 182.01757812 C-144.1488435 181.67519019 -141.57463517 181.3361382 -139 181 C-138.31094475 176.51970715 -137.82983661 172.11872073 -137.62695312 167.59106445 C-137.54181458 165.74536613 -137.54181458 165.74536613 -137.45495605 163.86238098 C-137.39694817 162.52935234 -137.33904927 161.19631895 -137.28125 159.86328125 C-137.21807428 158.4606155 -137.15463282 157.05796169 -137.09094238 155.65531921 C-136.95779296 152.70755749 -136.82688367 149.75970808 -136.69775391 146.81176758 C-136.53620133 143.12439729 -136.37070461 139.43721924 -136.20367432 135.75009346 C-135.36280422 117.16967009 -134.63697705 98.58870525 -134 80 C-117.17 80 -100.34 80 -83 80 C-74.66405295 95.07719118 -66.3341144 110.15300336 -58.16333008 125.3203125 C-55.50400658 130.25153146 -52.80556706 135.15037694 -50 140 C-46.28742432 138.3774016 -43.40100211 136.10605251 -40.3125 133.5 C-39.33925781 132.7059375 -38.36601562 131.911875 -37.36328125 131.09375 C-34.01406566 126.70932232 -34.11855687 123.41072514 -34 118 C-33.9494843 116.54454982 -33.89752503 115.08914935 -33.84448242 113.63378906 C-33.67137436 108.54828595 -33.55296555 103.46208235 -33.4375 98.375 C-33.39422426 96.58983538 -33.35060737 94.80467899 -33.30664062 93.01953125 C-33.19985923 88.67977412 -33.10008687 84.33993714 -33 80 C-23.1 80 -13.2 80 -3 80 C-0.94609054 73.15363514 0.96661103 66.43042799 2.625 59.5 C2.94984375 58.19095703 2.94984375 58.19095703 3.28125 56.85546875 C7.8799147 37.69436582 6.43426061 18.57265297 0 0 Z " fill="#0D6A34" transform="translate(502,156)"/>
<path d="M0 0 C13.56282565 9.12882496 23.54601672 22.87248966 33 36 C33.61746094 36.8353125 34.23492187 37.670625 34.87109375 38.53125 C36.41449246 41.90643333 36.28253899 44.88714385 36 48.5 C35.94948486 49.22904541 35.89896973 49.95809082 35.84692383 50.70922852 C34.68789789 64.02893912 30.94730569 76.63173578 26 89 C16.1 89 6.2 89 -4 89 C-3.98839844 91.62710938 -3.97679687 94.25421875 -3.96484375 96.9609375 C-3.95702081 99.53596883 -3.95096251 102.11099877 -3.94506836 104.68603516 C-3.94007316 106.46078088 -3.93327472 108.23552255 -3.92456055 110.01025391 C-3.90077101 114.98366686 -3.90813069 119.95461434 -3.97653198 124.92767334 C-3.99646121 126.68750939 -3.99041391 128.44760923 -3.97875977 130.20751953 C-4.13142575 134.89966186 -4.88506487 137.38262151 -8.16015625 140.8203125 C-9.4384795 141.94785916 -10.74009336 143.04949431 -12.0625 144.125 C-12.72572266 144.69992187 -13.38894531 145.27484375 -14.07226562 145.8671875 C-15.69500132 147.26811041 -17.34489342 148.63747355 -19 150 C-22.84458185 148.71847272 -23.05919723 147.55679476 -24.8984375 144.0234375 C-25.454104 142.9708374 -26.00977051 141.9182373 -26.58227539 140.83374023 C-27.17387451 139.69235596 -27.76547363 138.55097168 -28.375 137.375 C-29.6294541 134.99757663 -30.88571665 132.62120166 -32.14453125 130.24609375 C-32.62336006 129.33957817 -32.62336006 129.33957817 -33.11186218 128.41474915 C-36.318288 122.35973838 -39.67290085 116.39172171 -43.0625 110.4375 C-43.58569824 109.5182373 -44.10889648 108.59897461 -44.64794922 107.65185547 C-45.14697754 106.7754541 -45.64600586 105.89905273 -46.16015625 104.99609375 C-46.63340332 104.16319824 -47.10665039 103.33030273 -47.59423828 102.47216797 C-48.55256626 100.78685551 -49.51463932 99.10366844 -50.47998047 97.42236328 C-50.93904785 96.61395996 -51.39811523 95.80555664 -51.87109375 94.97265625 C-52.48682251 93.89576538 -52.48682251 93.89576538 -53.11499023 92.79711914 C-54 91 -54 91 -54 89 C-70.83 89 -87.66 89 -105 89 C-104.97035156 92.91230469 -104.94070313 96.82460937 -104.91015625 100.85546875 C-104.8670476 116.9657343 -105.55446281 133.02172188 -106.33239746 149.10968018 C-106.47473214 152.09283984 -106.60958664 155.07631991 -106.74441433 158.05982685 C-106.87640831 160.96738918 -107.01190742 163.87477948 -107.14857674 166.78212547 C-107.21277952 168.15230682 -107.27616931 169.52252654 -107.33868217 170.89278603 C-107.4260848 172.79237156 -107.51848882 174.69172495 -107.61108398 176.59106445 C-107.66215805 177.66354935 -107.71323212 178.73603424 -107.76585388 179.84101868 C-108.01918064 183.25877556 -108.4802325 186.61338337 -109 190 C-114.46966033 191.74735458 -119.73214172 192.56411869 -125.4375 193.125 C-126.26443359 193.21136719 -127.09136719 193.29773438 -127.94335938 193.38671875 C-129.96166778 193.59671616 -131.98076133 193.79914451 -134 194 C-134.30069379 177.30455549 -134.28733691 160.43668453 -131 144 C-150.47 144 -169.94 144 -190 144 C-190 153.24 -190 162.48 -190 172 C-184.39 172 -178.78 172 -173 172 C-172.85714286 186.85714286 -172.85714286 186.85714286 -174 194 C-188.05545677 196.8364165 -202.24505511 198.12810891 -214.875 190.1875 C-222.14921881 184.87122601 -226.08301181 178.78104269 -228 170 C-228.98690587 160.84544326 -228.76112628 151.50901192 -225 143 C-224.41412109 141.64841797 -224.41412109 141.64841797 -223.81640625 140.26953125 C-218.65552166 129.66998075 -210.08650952 122.03289576 -199 118 C-178.35803561 111.66637863 -157.06014661 115.31328446 -137 122 C-136.67 113.09 -136.34 104.18 -136 95 C-133.88464844 94.32195312 -131.76929688 93.64390625 -129.58984375 92.9453125 C-112.65037626 87.4684834 -96.11320281 81.63752819 -80 74 C-79.24460937 73.64309082 -78.48921875 73.28618164 -77.7109375 72.91845703 C-73.08613841 70.71276768 -68.52268757 68.40784993 -64 66 C-63.10643799 65.52530273 -63.10643799 65.52530273 -62.19482422 65.04101562 C-47.96544618 57.39723097 -35.61374272 48.1836041 -24 37 C-23.19820312 36.27296875 -22.39640625 35.5459375 -21.5703125 34.796875 C-11.53767495 25.42382262 -4.32759243 12.98277729 0 0 Z " fill="#FDFDFD" transform="translate(473,147)"/>
<path d="M0 0 C16.83 0 33.66 0 51 0 C59.33594705 15.07719118 67.6658856 30.15300336 75.83666992 45.3203125 C78.49599342 50.25153146 81.19443294 55.15037694 84 60 C87.71257568 58.3774016 90.59899789 56.10605251 93.6875 53.5 C94.66074219 52.7059375 95.63398438 51.911875 96.63671875 51.09375 C99.98593434 46.70932232 99.88144313 43.41072514 100 38 C100.0505157 36.54454982 100.10247497 35.08914935 100.15551758 33.63378906 C100.32792417 28.5480483 100.44665096 23.46239705 100.5625 18.375 C100.706875 12.31125 100.85125 6.2475 101 0 C113.54 0 126.08 0 139 0 C139 8.17719901 138.78582886 16.07395635 138.125 24.1875 C137.03989493 38.31632978 136.34478252 52.45531483 135.69775391 66.61010742 C135.62035853 68.28956192 135.54272608 69.96900551 135.46484375 71.6484375 C135.40818794 72.87414711 135.40818794 72.87414711 135.35038757 74.12461853 C135.12954693 78.75176276 134.83882015 83.36567416 134.4765625 87.984375 C133.803059 96.93693173 133.64583798 105.90205853 133.4375 114.875 C133.293125 120.85625 133.14875 126.8375 133 133 C116.5 133 100 133 83 133 C80.1846875 127.988125 80.1846875 127.988125 77.3125 122.875 C72.7737925 114.82256589 68.16014519 106.82092407 63.4375 98.875 C54.03972331 83.06057596 44.98940912 67.04927335 36 51 C35.12109217 59.35222427 34.73874312 67.67380553 34.5 76.06640625 C34.43794426 78.07557633 34.37588457 80.0847463 34.31359863 82.09390926 C34.18461977 86.28824641 34.06146547 90.48275834 33.9375 94.67724609 C33.83476055 98.14670907 33.73065585 101.61611832 33.62304688 105.08543396 C33.54306483 107.67311697 33.46607566 110.26089483 33.39257812 112.84877014 C33.35583984 114.03377609 33.31910156 115.21878204 33.28125 116.43969727 C33.25095703 117.46797134 33.22066406 118.49624542 33.18945312 119.55567932 C32.94236442 124.04783399 32.44766176 128.52338238 32 133 C19.46 133 6.92 133 -6 133 C-6 120.6516195 -6 120.6516195 -5.61743164 115.9609375 C-5.53520859 114.90366455 -5.45298553 113.8463916 -5.36827087 112.75708008 C-5.27896805 111.64099365 -5.18966522 110.52490723 -5.09765625 109.375 C-3.9339929 93.96617229 -3.2026012 78.55027619 -2.53027344 63.11437988 C-2.40664593 60.29681131 -2.27928936 57.47941667 -2.15186119 54.66201782 C-1.32868853 36.44434916 -0.62620918 18.22566896 0 0 Z " fill="#333333" transform="translate(368,236)"/>
<path d="M0 0 C1.18658203 -0.00056396 2.37316406 -0.00112793 3.59570312 -0.00170898 C18.66564102 0.17830398 34.48953463 1.71613366 49.125 5.375 C49.455 15.935 49.785 26.495 50.125 37.375 C45.505 36.055 40.885 34.735 36.125 33.375 C17.18963153 29.16364834 -4.69942515 27.08014938 -21.9296875 37.98828125 C-22.89261719 38.67470703 -22.89261719 38.67470703 -23.875 39.375 C-24.55820312 39.84292969 -25.24140625 40.31085938 -25.9453125 40.79296875 C-34.23897859 47.17877629 -39.06842439 57.19193546 -40.875 67.375 C-42.23564165 79.23791646 -40.7991695 89.91364591 -33.625 99.8125 C-24.75182887 108.08068219 -15.00899807 109.69198641 -3.25 109.51171875 C1.89620256 109.3032499 6.99844884 108.86912541 12.125 108.375 C12.455 101.115 12.785 93.855 13.125 86.375 C7.515 86.375 1.905 86.375 -3.875 86.375 C-3.875 77.135 -3.875 67.895 -3.875 58.375 C15.595 58.375 35.065 58.375 55.125 58.375 C54.465 67.285 53.805 76.195 53.125 85.375 C52.03508642 101.36039913 51.59700278 117.36181232 51.125 133.375 C17.79739096 141.47128337 -27.21190572 144.71478106 -58.125 127.625 C-71.73385809 118.93474054 -79.24715033 105.88113165 -82.875 90.375 C-86.65446239 69.18481418 -82.89467582 49.52201527 -71.04296875 31.60546875 C-69.4037562 29.43341962 -67.69687292 27.39508594 -65.875 25.375 C-65.38 24.78847656 -64.885 24.20195312 -64.375 23.59765625 C-48.25619191 5.82667033 -23.03202265 -0.02824181 0 0 Z " fill="#343434" transform="translate(286.875,232.625)"/>
<path d="M0 0 C1.55098389 0.00302124 1.55098389 0.00302124 3.13330078 0.00610352 C27.76434288 0.31967144 27.76434288 0.31967144 35.75 4.3125 C36.14364574 6.70287455 36.4098465 9.00134649 36.6015625 11.41015625 C36.69719986 12.47344398 36.69719986 12.47344398 36.79476929 13.55821228 C36.99703191 15.82979753 37.18614463 18.1022646 37.375 20.375 C37.50955424 21.91218511 37.64495982 23.44929596 37.78125 24.98632812 C38.11406358 28.76092683 38.43508564 32.53636755 38.75 36.3125 C37.00117474 35.83770837 35.25250746 35.36233484 33.50390625 34.88671875 C32.5301001 34.62205811 31.55629395 34.35739746 30.55297852 34.0847168 C28.86295961 33.61911887 27.17559462 33.14349143 25.49389648 32.64868164 C17.30856422 30.27572074 5.8486577 29.36918691 -2.19140625 32.43359375 C-4.58710085 33.86911027 -4.58710085 33.86911027 -7.25 36.3125 C-7.21636423 37.68850868 -7.14638262 39.06363867 -7.0625 40.4375 C-7.01029297 41.58605469 -7.01029297 41.58605469 -6.95703125 42.7578125 C-5.23283102 48.98779565 0.42869398 52.89561516 5.375 56.625 C6.62158529 57.58790565 7.86767323 58.55145549 9.11328125 59.515625 C9.72768066 59.98806641 10.34208008 60.46050781 10.97509766 60.94726562 C21.90055938 69.35100454 31.66534347 77.70856861 37.75 90.3125 C38.08 90.9725 38.41 91.6325 38.75 92.3125 C39.67304058 104.52503695 37.8056361 114.82592854 29.75 124.3125 C23.70931536 130.26928624 16.69159994 133.54434441 8.75 136.3125 C7.77289063 136.68117188 6.79578125 137.04984375 5.7890625 137.4296875 C-0.20792885 139.08078381 -6.58122002 138.65546105 -12.75 138.625 C-13.43009125 138.62450653 -14.1101825 138.62401306 -14.81088257 138.62350464 C-45.76511507 138.55494246 -45.76511507 138.55494246 -54.25 134.3125 C-54.57235386 131.84540054 -54.76718362 129.47532126 -54.8828125 126.99609375 C-54.92437469 126.26503922 -54.96593689 125.53398468 -55.00875854 124.78077698 C-55.13988394 122.43757907 -55.25757631 120.09392068 -55.375 117.75 C-55.46135813 116.16466528 -55.54858632 114.5793777 -55.63671875 112.99414062 C-55.85125874 109.10073633 -56.0537514 105.2068674 -56.25 101.3125 C-55.68079834 101.50368408 -55.11159668 101.69486816 -54.52514648 101.8918457 C-43.8776973 105.45653753 -34.11167955 108.67152534 -22.8125 108.75 C-22.07974854 108.75990967 -21.34699707 108.76981934 -20.59204102 108.7800293 C-15.2446735 108.69565149 -11.11457906 107.56216932 -6.25 105.3125 C-3.84167906 101.70001859 -3.52639145 100.57375032 -4.25 96.3125 C-10.01183505 87.44080034 -19.58628765 80.40596988 -27.75 73.875 C-48.68872604 56.80050237 -48.68872604 56.80050237 -50.56640625 44.18701172 C-51.45941717 34.69065242 -50.99825395 26.2563735 -45.25 18.3125 C-44.81558594 17.67183594 -44.38117188 17.03117187 -43.93359375 16.37109375 C-38.18799658 8.79214364 -29.28189336 4.63054462 -20.25 2.3125 C-19.62786621 2.14403564 -19.00573242 1.97557129 -18.36474609 1.80200195 C-12.21031667 0.26099213 -6.32785966 -0.03359834 0 0 Z " fill="#343433" transform="translate(147.25,232.6875)"/>
<path d="M0 0 C0.495 0.99 0.495 0.99 1 2 C-0.03966424 4.55000742 -1.1392961 7.01263791 -2.3125 9.5 C-10.30571591 27.31154618 -10.07923584 46.72508197 -3.93359375 65.20703125 C-1.31005074 72.09058468 2.1848126 77.46786316 7 83 C8.07490084 84.25332158 9.14907625 85.50726557 10.22265625 86.76171875 C11.14836163 87.8412109 12.07411713 88.92066008 13 90 C12.22624023 90.25056152 11.45248047 90.50112305 10.65527344 90.75927734 C-22.65229966 101.63975122 -55.67107352 115.11349185 -72.8125 147.9375 C-77.56176025 157.91974145 -80.33952371 168.09766229 -82 179 C-95.23783301 168.63995678 -104.1016871 154.02433954 -113 140 C-113.42885498 139.33145996 -113.85770996 138.66291992 -114.29956055 137.97412109 C-118.23333472 131.54898544 -117.10945455 126.77617674 -115.46044922 119.67724609 C-111.75570744 104.51141488 -111.75570744 104.51141488 -110 101 C-109.20464844 101.0721875 -108.40929687 101.144375 -107.58984375 101.21875 C-77.04035094 104.2884574 -77.04035094 104.2884574 -48 97 C-47.05769531 96.55398438 -46.11539063 96.10796875 -45.14453125 95.6484375 C-37.55042287 91.63264607 -32.24846673 85.71286668 -29.125 77.6875 C-26.7266074 69.82610203 -24.88501837 60.59983929 -28.5 52.8125 C-33.32282468 44.78570089 -39.54118015 38.18828914 -46.60546875 32.10546875 C-49.18324121 29.83887926 -51.59485569 27.44786445 -54 25 C-36.60993821 13.93544607 -19.81935081 5.74347817 0 0 Z " fill="#FDFDFD" transform="translate(212,268)"/>
<path d="M0 0 C0.99 0.495 0.99 0.495 2 1 C-8.19137034 9.35565767 -19.43505352 15.74044048 -31 22 C-32.07822021 22.5873291 -32.07822021 22.5873291 -33.17822266 23.18652344 C-39.81413231 26.67105347 -46.66804361 27.83411023 -54 29 C-55.23492187 29.20753906 -56.46984375 29.41507812 -57.7421875 29.62890625 C-92.69536587 34.81508409 -128.66431145 29.64396362 -163 23 C-163.33 22.01 -163.66 21.02 -164 20 C-162.22912349 20.12438689 -160.4583047 20.24959503 -158.6875 20.375 C-156.76357422 20.50841797 -156.76357422 20.50841797 -154.80078125 20.64453125 C-151.21174663 20.90149718 -147.62775466 21.2012522 -144.04296875 21.51171875 C-97.53566486 25.4296616 -45.88446548 23.88123698 -3.53125 1.6953125 C-2.3659375 1.13585937 -1.200625 0.57640625 0 0 Z " fill="#FFFFFF" transform="translate(454,472)"/>
<path d="M0 0 C0.33 0.99 0.66 1.98 1 3 C0.24944336 2.93941406 -0.50111328 2.87882812 -1.27441406 2.81640625 C-46.54609143 -0.73003428 -92.7466598 -1.24616963 -136.1875 13.85253906 C-137.04085937 14.14612305 -137.89421875 14.43970703 -138.7734375 14.7421875 C-139.52028809 15.0088623 -140.26713867 15.27553711 -141.03662109 15.55029297 C-143 16 -143 16 -146 15 C-142.4310241 12.68910466 -138.81919031 10.4654223 -135.16503906 8.29296875 C-133.67373474 7.40235669 -132.18903381 6.50062466 -130.70996094 5.58984375 C-94.14673098 -16.67765318 -40.00098803 -8.19147052 0 0 Z " fill="#FFFFFF" transform="translate(315,109)"/>
<path d="M0 0 C3.82008595 0.55799008 5.54762388 2.19856662 8.1875 4.9375 C8.88230469 5.64777344 9.57710937 6.35804688 10.29296875 7.08984375 C12.42468835 9.47522335 12.94918247 10.61886855 13.375 13.8125 C13 17 13 17 10.875 19.75 C5.14225585 24.23649542 -0.40368707 24.26954078 -7.375 24.125 C-8.20644531 24.11597656 -9.03789063 24.10695313 -9.89453125 24.09765625 C-11.92981337 24.0742622 -13.96494564 24.03839725 -16 24 C-14.51358525 19.73152556 -12.27948754 16.22555677 -9.6875 12.5625 C-9.30916016 12.01529297 -8.93082031 11.46808594 -8.54101562 10.90429688 C-5.87880302 7.09791845 -3.01262058 3.53516362 0 0 Z " fill="#FBFBFB" transform="translate(131,318)"/>
<path d="M0 0 C2.48253119 2.99201199 4.62533474 5.87028833 6.40234375 9.328125 C6.81806641 10.12863281 7.23378906 10.92914063 7.66210938 11.75390625 C8.08298828 12.57761719 8.50386719 13.40132813 8.9375 14.25 C9.77888696 15.88075617 10.62133255 17.51096658 11.46484375 19.140625 C11.87718262 19.93791016 12.28952148 20.73519531 12.71435547 21.55664062 C14.74142712 25.4090776 16.86385238 29.20721324 19 33 C16.25206182 34.31697037 13.50182815 35.62870369 10.75 36.9375 C9.97269531 37.31068359 9.19539063 37.68386719 8.39453125 38.06835938 C7.64042969 38.42607422 6.88632812 38.78378906 6.109375 39.15234375 C5.07248535 39.6472229 5.07248535 39.6472229 4.01464844 40.15209961 C2.02572001 40.98917528 0.10419318 41.53583974 -2 42 C-1.87966457 38.10786467 -1.75534336 34.2158768 -1.62768555 30.32397461 C-1.56424794 28.36643735 -1.50376182 26.40880514 -1.44335938 24.45117188 C-1.17300432 16.27813048 -0.70317332 8.14731978 0 0 Z " fill="#FBFBFB" transform="translate(403,285)"/>
<path d="M0 0 C-0.11884529 4.30518014 -0.24312965 8.61015967 -0.37231445 12.91503906 C-0.41545337 14.37756148 -0.45714195 15.84012747 -0.49731445 17.30273438 C-0.5555307 19.4128936 -0.61907288 21.52283775 -0.68359375 23.6328125 C-0.73858032 25.53377686 -0.73858032 25.53377686 -0.79467773 27.47314453 C-0.98371036 30.72019016 -1.3962073 33.80698948 -2 37 C-4.53801278 34.69656607 -6.07139703 32.33871372 -7.69921875 29.33203125 C-8.18583984 28.43935547 -8.67246094 27.54667969 -9.17382812 26.62695312 C-9.67333984 25.69818359 -10.17285156 24.76941406 -10.6875 23.8125 C-11.19861328 22.87212891 -11.70972656 21.93175781 -12.23632812 20.96289062 C-13.49559531 18.64442673 -14.74994246 16.3234386 -16 14 C-12.66849445 10.62655103 -9.26935205 7.36440013 -5.75 4.1875 C-4.44289063 3.00220703 -4.44289063 3.00220703 -3.109375 1.79296875 C-1 0 -1 0 0 0 Z " fill="#0F6834" transform="translate(468,284)"/>
<path d="M0 0 C0.66 0.99 1.32 1.98 2 3 C-1.66666667 6.66666667 -5.33333333 10.33333333 -9 14 C-7.65070536 10.16336928 -5.92248975 7.34827431 -3.375 4.1875 C-2.42753906 3.00220703 -2.42753906 3.00220703 -1.4609375 1.79296875 C-0.97882813 1.20128906 -0.49671875 0.60960937 0 0 Z " fill="#72AF2B" transform="translate(98,155)"/>
<path d="M0 0 C0.99 0.495 0.99 0.495 2 1 C1.67 1.66 1.34 2.32 1 3 C0.67 2.01 0.34 1.02 0 0 Z " fill="#75B030" transform="translate(102,462)"/>
<path d="" fill="#7EB53E" transform="translate(0,0)"/>
<path d="" fill="#0D6A34" transform="translate(0,0)"/>
<path d="" fill="#458F39" transform="translate(0,0)"/>
<path d="" fill="#7EB53E" transform="translate(0,0)"/>
<path d="" fill="#0D6A34" transform="translate(0,0)"/>
<path d="" fill="#0D6A34" transform="translate(0,0)"/>
<path d="" fill="#7EB53E" transform="translate(0,0)"/>
<path d="" fill="#7EB53E" transform="translate(0,0)"/>
<path d="" fill="#6CAC22" transform="translate(0,0)"/>
<path d="" fill="#0D6A34" transform="translate(0,0)"/>
</svg>
